# File produced by Open Asset Import Library (http://www.assimp.sf.net)
# (assimp v5.0.1937526254)

mtllib circle.mtl

# 50 vertex positions and colors
v  0 0.310000002 -0.5 1 1 1
v  0 0.310000002 0.5 1 1 1
v  0.0770940036 0.300260991 -0.5 1 1 1
v  0.0770940036 0.300260991 0.5 1 1 1
v  0.149343997 0.271654993 -0.5 1 1 1
v  0.149343997 0.271654993 0.5 1 1 1
v  0.21221 0.225979999 -0.5 1 1 1
v  0.21221 0.225979999 0.5 1 1 1
v  0.261741996 0.166106001 -0.5 1 1 1
v  0.261741996 0.166106001 0.5 1 1 1
v  0.294827998 0.0957949981 -0.5 1 1 1
v  0.294827998 0.0957949981 0.5 1 1 1
v  0.309388012 0.0194649994 -0.5 1 1 1
v  0.309388012 0.0194649994 0.5 1 1 1
v  0.304509014 -0.0580880009 -0.5 1 1 1
v  0.304509014 -0.0580880009 0.5 1 1 1
v  0.280496001 -0.131991997 -0.5 1 1 1
v  0.280496001 -0.131991997 0.5 1 1 1
v  0.238858998 -0.197601005 -0.5 1 1 1
v  0.238858998 -0.197601005 0.5 1 1 1
v  0.182212994 -0.250795007 -0.5 1 1 1
v  0.182212994 -0.250795007 0.5 1 1 1
v  0.114119001 -0.288230985 -0.5 1 1 1
v  0.114119001 -0.288230985 0.5 1 1 1
v  0.0388530008 -0.307556003 -0.5 1 1 1
v  0.0388530008 -0.307556003 0.5 1 1 1
v  -0.0388530008 -0.307556003 -0.5 1 1 1
v  -0.0388530008 -0.307556003 0.5 1 1 1
v  -0.114119001 -0.288230985 -0.5 1 1 1
v  -0.114119001 -0.288230985 0.5 1 1 1
v  -0.182212994 -0.250795007 -0.5 1 1 1
v  -0.182212994 -0.250795007 0.5 1 1 1
v  -0.238858998 -0.197601005 -0.5 1 1 1
v  -0.238858998 -0.197601005 0.5 1 1 1
v  -0.280496001 -0.131991997 -0.5 1 1 1
v  -0.280496001 -0.131991997 0.5 1 1 1
v  -0.304509014 -0.0580880009 -0.5 1 1 1
v  -0.304509014 -0.0580880009 0.5 1 1 1
v  -0.309388012 0.0194649994 -0.5 1 1 1
v  -0.309388012 0.0194649994 0.5 1 1 1
v  -0.294827998 0.0957949981 -0.5 1 1 1
v  -0.294827998 0.0957949981 0.5 1 1 1
v  -0.261741996 0.166106001 -0.5 1 1 1
v  -0.261741996 0.166106001 0.5 1 1 1
v  -0.21221 0.225979999 -0.5 1 1 1
v  -0.21221 0.225979999 0.5 1 1 1
v  -0.149343997 0.271654993 -0.5 1 1 1
v  -0.149343997 0.271654993 0.5 1 1 1
v  -0.0770940036 0.300260991 0.5 1 1 1
v  -0.0770940036 0.300260991 -0.5 1 1 1

# 102 UV coordinates
vt 1 0.5 1
vt 1 1 1
vt 0.959999979 0.5 1
vt 0.959999979 1 1
vt 0.920000017 0.5 1
vt 0.920000017 1 1
vt 0.879999995 0.5 1
vt 0.879999995 1 1
vt 0.839999974 0.5 1
vt 0.839999974 1 1
vt 0.800000012 0.5 1
vt 0.800000012 1 1
vt 0.75999999 0.5 1
vt 0.75999999 1 1
vt 0.720000029 0.5 1
vt 0.720000029 1 1
vt 0.680000007 0.5 1
vt 0.680000007 1 1
vt 0.639999986 0.5 1
vt 0.639999986 1 1
vt 0.600000024 0.5 1
vt 0.600000024 1 1
vt 0.560000002 0.5 1
vt 0.560000002 1 1
vt 0.519999981 0.5 1
vt 0.519999981 1 1
vt 0.479999989 0.5 1
vt 0.479999989 1 1
vt 0.439999998 0.5 1
vt 0.439999998 1 1
vt 0.400000006 0.5 1
vt 0.400000006 1 1
vt 0.360000014 0.5 1
vt 0.360000014 1 1
vt 0.319999993 0.5 1
vt 0.319999993 1 1
vt 0.280000001 0.5 1
vt 0.280000001 1 1
vt 0.239999995 0.5 1
vt 0.239999995 1 1
vt 0.200000003 0.5 1
vt 0.200000003 1 1
vt 0.159999996 0.5 1
vt 0.159999996 1 1
vt 0.119999997 0.5 1
vt 0.119999997 1 1
vt 0.0799999982 0.5 1
vt 0.0799999982 1 1
vt 0.309686005 0.482459992 1
vt 0.25 0.49000001 1
vt 0.190313995 0.482459992 1
vt 0.134378999 0.460314006 1
vt 0.0857089981 0.424952 1
vt 0.0473610014 0.378598005 1
vt 0.0217460003 0.324164003 1
vt 0.0104740001 0.265069991 1
vt 0.0142510002 0.205027997 1
vt 0.0328419991 0.147813007 1
vt 0.0650769994 0.0970180035 1
vt 0.108932003 0.0558359995 1
vt 0.161650002 0.0268539991 1
vt 0.219919994 0.0118920002 1
vt 0.280079991 0.0118920002 1
vt 0.338349998 0.0268539991 1
vt 0.391068012 0.0558359995 1
vt 0.434922993 0.0970180035 1
vt 0.46715799 0.147813007 1
vt 0.485749006 0.205027997 1
vt 0.489526004 0.265069991 1
vt 0.47825399 0.324164003 1
vt 0.452639014 0.378598005 1
vt 0.414290994 0.424952 1
vt 0.365621001 0.460314006 1
vt 0.0399999991 0.5 1
vt 0.0399999991 1 1
vt -0 0.5 1
vt -0 1 1
vt 0.75 0.49000001 1
vt 0.809686005 0.482459992 1
vt 0.865620971 0.460314006 1
vt 0.914291024 0.424952 1
vt 0.952638984 0.378598005 1
vt 0.97825402 0.324164003 1
vt 0.989525974 0.265069991 1
vt 0.985749006 0.205027997 1
vt 0.96715802 0.147813007 1
vt 0.934922993 0.0970180035 1
vt 0.891067982 0.0558359995 1
vt 0.838349998 0.0268539991 1
vt 0.78008002 0.0118920002 1
vt 0.71991998 0.0118920002 1
vt 0.661650002 0.0268539991 1
vt 0.608932018 0.0558359995 1
vt 0.565077007 0.0970180035 1
vt 0.53284198 0.147813007 1
vt 0.514250994 0.205027997 1
vt 0.510474026 0.265069991 1
vt 0.52174598 0.324164003 1
vt 0.547361016 0.378598005 1
vt 0.585708976 0.424952 1
vt 0.634379029 0.460314006 1
vt 0.690313995 0.482459992 1

# 27 vertex normals
vn 0.125300005 0.9921 -2.20290453e-16
vn 0.368099988 0.929799974 -2.06457068e-16
vn 0.587800026 0.809000015 -1.79634089e-16
vn 0.770500004 0.637399971 -1.41531225e-16
vn 0.904799998 0.425799996 -9.45465918e-17
vn 0.982299984 0.187399998 -4.16111586e-17
vn 0.998000026 -0.0627999976 1.39444007e-17
vn 0.951099992 -0.308999985 6.86117797e-17
vn 0.844299972 -0.53579998 1.18971495e-16
vn 0.684499979 -0.728999972 1.61870511e-16
vn 0.48179999 -0.876299977 1.94577682e-16
vn 0.248699993 -0.968599975 2.15072399e-16
vn 0 -1 2.22044605e-16
vn -0.248699993 -0.968599975 2.15072399e-16
vn -0.48179999 -0.876299977 1.94577682e-16
vn -0.684499979 -0.728999972 1.61870511e-16
vn -0.844299972 -0.53579998 1.18971495e-16
vn -0.951099992 -0.308999985 6.86117797e-17
vn -0.998000026 -0.0627999976 1.39444007e-17
vn -0.982299984 0.187399998 -4.16111586e-17
vn -0.904799998 0.425799996 -9.45465918e-17
vn -0.770500004 0.637399971 -1.41531225e-16
vn -0.587800026 0.809000015 -1.79634089e-16
vn 0 2.22044605e-16 1
vn -0.368099988 0.929799974 -2.06457068e-16
vn -0.125300005 0.9921 -2.20290453e-16
vn 0 -2.22044605e-16 -1

# Mesh 'Circle_Cylinder_010' with 96 faces
g Circle_Cylinder_010
usemtl Ash
f  1/1/1 2/2/1 3/3/1
f  2/2/1 4/4/1 3/3/1
f  3/3/2 4/4/2 5/5/2
f  4/4/2 6/6/2 5/5/2
f  5/5/3 6/6/3 7/7/3
f  6/6/3 8/8/3 7/7/3
f  7/7/4 8/8/4 9/9/4
f  8/8/4 10/10/4 9/9/4
f  9/9/5 10/10/5 11/11/5
f  10/10/5 12/12/5 11/11/5
f  11/11/6 12/12/6 13/13/6
f  12/12/6 14/14/6 13/13/6
f  13/13/7 14/14/7 15/15/7
f  14/14/7 16/16/7 15/15/7
f  15/15/8 16/16/8 17/17/8
f  16/16/8 18/18/8 17/17/8
f  17/17/9 18/18/9 19/19/9
f  18/18/9 20/20/9 19/19/9
f  19/19/10 20/20/10 21/21/10
f  20/20/10 22/22/10 21/21/10
f  21/21/11 22/22/11 23/23/11
f  22/22/11 24/24/11 23/23/11
f  23/23/12 24/24/12 25/25/12
f  24/24/12 26/26/12 25/25/12
f  25/25/13 26/26/13 27/27/13
f  26/26/13 28/28/13 27/27/13
f  27/27/14 28/28/14 29/29/14
f  28/28/14 30/30/14 29/29/14
f  29/29/15 30/30/15 31/31/15
f  30/30/15 32/32/15 31/31/15
f  31/31/16 32/32/16 33/33/16
f  32/32/16 34/34/16 33/33/16
f  33/33/17 34/34/17 35/35/17
f  34/34/17 36/36/17 35/35/17
f  35/35/18 36/36/18 37/37/18
f  36/36/18 38/38/18 37/37/18
f  37/37/19 38/38/19 39/39/19
f  38/38/19 40/40/19 39/39/19
f  39/39/20 40/40/20 41/41/20
f  40/40/20 42/42/20 41/41/20
f  41/41/21 42/42/21 43/43/21
f  42/42/21 44/44/21 43/43/21
f  43/43/22 44/44/22 45/45/22
f  44/44/22 46/46/22 45/45/22
f  45/45/23 46/46/23 47/47/23
f  46/46/23 48/48/23 47/47/23
f  4/49/24 2/50/24 49/51/24
f  4/49/24 49/51/24 48/52/24
f  4/49/24 48/52/24 46/53/24
f  4/49/24 46/53/24 44/54/24
f  4/49/24 44/54/24 42/55/24
f  4/49/24 42/55/24 40/56/24
f  4/49/24 40/56/24 38/57/24
f  4/49/24 38/57/24 36/58/24
f  4/49/24 36/58/24 34/59/24
f  4/49/24 34/59/24 32/60/24
f  4/49/24 32/60/24 30/61/24
f  4/49/24 30/61/24 28/62/24
f  28/62/24 26/63/24 24/64/24
f  28/62/24 24/64/24 22/65/24
f  28/62/24 22/65/24 20/66/24
f  28/62/24 20/66/24 18/67/24
f  28/62/24 18/67/24 16/68/24
f  28/62/24 16/68/24 14/69/24
f  28/62/24 14/69/24 12/70/24
f  28/62/24 12/70/24 10/71/24
f  28/62/24 10/71/24 8/72/24
f  28/62/24 8/72/24 6/73/24
f  4/49/24 28/62/24 6/73/24
f  47/47/25 48/48/25 50/74/25
f  48/48/25 49/75/25 50/74/25
f  50/74/26 49/75/26 1/76/26
f  49/75/26 2/77/26 1/76/26
f  1/78/27 3/79/27 5/80/27
f  1/78/27 5/80/27 7/81/27
f  1/78/27 7/81/27 9/82/27
f  1/78/27 9/82/27 11/83/27
f  1/78/27 11/83/27 13/84/27
f  1/78/27 13/84/27 15/85/27
f  1/78/27 15/85/27 17/86/27
f  1/78/27 17/86/27 19/87/27
f  1/78/27 19/87/27 21/88/27
f  1/78/27 21/88/27 23/89/27
f  1/78/27 23/89/27 25/90/27
f  1/78/27 25/90/27 27/91/27
f  27/91/27 29/92/27 31/93/27
f  27/91/27 31/93/27 33/94/27
f  27/91/27 33/94/27 35/95/27
f  27/91/27 35/95/27 37/96/27
f  27/91/27 37/96/27 39/97/27
f  27/91/27 39/97/27 41/98/27
f  27/91/27 41/98/27 43/99/27
f  27/91/27 43/99/27 45/100/27
f  27/91/27 45/100/27 47/101/27
f  27/91/27 47/101/27 50/102/27
f  1/78/27 27/91/27 50/102/27

