# File produced by Open Asset Import Library (http://www.assimp.sf.net)
# (assimp v5.0.1937526254)

mtllib hex.mtl

# 12 vertex positions and colors
v  0 0.330000013 -0.5 1 1 1
v  0 0.330000013 0.5 1 1 1
v  0.285788 0.165000007 -0.5 1 1 1
v  0.285788 0.165000007 0.5 1 1 1
v  0.285788 -0.165000007 -0.5 1 1 1
v  0.285788 -0.165000007 0.5 1 1 1
v  0 -0.330000013 -0.5 1 1 1
v  0 -0.330000013 0.5 1 1 1
v  -0.285788 -0.165000007 -0.5 1 1 1
v  -0.285788 -0.165000007 0.5 1 1 1
v  -0.285788 0.165000007 0.5 1 1 1
v  -0.285788 0.165000007 -0.5 1 1 1

# 26 UV coordinates
vt 1 0.5 1
vt 1 1 1
vt 0.833333015 0.5 1
vt 0.833333015 1 1
vt 0.666666985 0.5 1
vt 0.666666985 1 1
vt 0.5 0.5 1
vt 0.5 1 1
vt 0.333332986 0.5 1
vt 0.333332986 1 1
vt 0.457845986 0.370000005 1
vt 0.25 0.49000001 1
vt 0.0421539992 0.370000005 1
vt 0.0421539992 0.129999995 1
vt 0.25 0.00999999978 1
vt 0.457845986 0.129999995 1
vt 0.166666999 0.5 1
vt 0.166666999 1 1
vt -0 0.5 1
vt -0 1 1
vt 0.75 0.49000001 1
vt 0.957845986 0.370000005 1
vt 0.957845986 0.129999995 1
vt 0.75 0.00999999978 1
vt 0.542154014 0.129999995 1
vt 0.542154014 0.370000005 1

# 8 vertex normals
vn 0.5 0.865999997 -1.92290627e-16
vn 1 0 0
vn 0.5 -0.865999997 1.92290627e-16
vn -0.5 -0.865999997 1.92290627e-16
vn 0 2.22044605e-16 1
vn -1 0 0
vn -0.5 0.865999997 -1.92290627e-16
vn 0 -2.22044605e-16 -1

# Mesh 'Hex_Cylinder_009' with 20 faces
g Hex_Cylinder_009
usemtl Cherry
f  1/1/1 2/2/1 3/3/1
f  2/2/1 4/4/1 3/3/1
f  3/3/2 4/4/2 5/5/2
f  4/4/2 6/6/2 5/5/2
f  5/5/3 6/6/3 7/7/3
f  6/6/3 8/8/3 7/7/3
f  7/7/4 8/8/4 9/9/4
f  8/8/4 10/10/4 9/9/4
f  4/11/5 2/12/5 11/13/5
f  4/11/5 11/13/5 10/14/5
f  4/11/5 10/14/5 8/15/5
f  4/11/5 8/15/5 6/16/5
f  9/9/6 10/10/6 12/17/6
f  10/10/6 11/18/6 12/17/6
f  12/17/7 11/18/7 1/19/7
f  11/18/7 2/20/7 1/19/7
f  1/21/8 3/22/8 5/23/8
f  1/21/8 5/23/8 7/24/8
f  1/21/8 7/24/8 9/25/8
f  1/21/8 9/25/8 12/26/8

