# File produced by Open Asset Import Library (http://www.assimp.sf.net)
# (assimp v5.0.1937526254)

mtllib square.mtl

# 8 vertex positions and colors
v  -0.268700987 0.268700987 -0.5 1 1 1
v  -0.268700987 0.268700987 0.5 1 1 1
v  0.268700987 0.268700987 -0.5 1 1 1
v  0.268700987 0.268700987 0.5 1 1 1
v  0.268700987 -0.268700987 -0.5 1 1 1
v  0.268700987 -0.268700987 0.5 1 1 1
v  -0.268700987 -0.268700987 0.5 1 1 1
v  -0.268700987 -0.268700987 -0.5 1 1 1

# 18 UV coordinates
vt 1 0.5 1
vt 1 1 1
vt 0.75 0.5 1
vt 0.75 1 1
vt 0.5 0.5 1
vt 0.5 1 1
vt 0.49000001 0.25 1
vt 0.25 0.49000001 1
vt 0.25 0.00999999978 1
vt 0.00999999978 0.25 1
vt 0.25 0.5 1
vt 0.25 1 1
vt 0 0.5 1
vt 0 1 1
vt 0.75 0.49000001 1
vt 0.99000001 0.25 1
vt 0.50999999 0.25 1
vt 0.75 0.00999999978 1

# 6 vertex normals
vn 0 1 -2.22044605e-16
vn 1 0 0
vn 0 2.22044605e-16 1
vn 0 -1 2.22044605e-16
vn -1 0 0
vn 0 -2.22044605e-16 -1

# Mesh 'Square_Cylinder_005' with 12 faces
g Square_Cylinder_005
usemtl Oak
f  1/1/1 2/2/1 3/3/1
f  2/2/1 4/4/1 3/3/1
f  3/3/2 4/4/2 5/5/2
f  4/4/2 6/6/2 5/5/2
f  4/7/3 2/8/3 6/9/3
f  2/8/3 7/10/3 6/9/3
f  5/5/4 6/6/4 8/11/4
f  6/6/4 7/12/4 8/11/4
f  8/11/5 7/12/5 1/13/5
f  7/12/5 2/14/5 1/13/5
f  1/15/6 3/16/6 8/17/6
f  3/16/6 5/18/6 8/17/6

