# File produced by Open Asset Import Library (http://www.assimp.sf.net)
# (assimp v5.0.1937526254)

mtllib triangle.mtl

# 18 vertex positions and colors
v  0.00418000016 0.35827899 0.47459501 1 1 1
v  0.164545 0.0949999988 -2.10942372e-17 1 1 1
v  0 0.360691994 -8.00897114e-17 1 1 1
v  0.308187991 -0.18276 0.47459501 1 1 1
v  0 -0.189999998 4.21884744e-17 1 1 1
v  0.312368989 -0.180345997 4.00448557e-17 1 1 1
v  0.158970997 0.0853459984 0.483063012 1 1 1
v  -0.00557400007 -0.180345997 0.483063012 1 1 1
v  -0.312368989 -0.175519004 0.47459501 1 1 1
v  -0.164545 0.0949999988 -2.10942372e-17 1 1 1
v  -0.312368989 -0.180345997 4.00448557e-17 1 1 1
v  -0.00418000016 0.35827899 -0.47459501 1 1 1
v  0.153398007 0.0949999988 -0.483063012 1 1 1
v  -0.158970997 0.0853459984 -0.483063012 1 1 1
v  -0.153398007 0.0949999988 0.483063012 1 1 1
v  -0.308187991 -0.18276 -0.47459501 1 1 1
v  0.312368989 -0.175519004 -0.47459501 1 1 1
v  0.00557400007 -0.180345997 -0.483063012 1 1 1

# 33 UV coordinates
vt 1 1 1
vt 0.833333015 0.75 1
vt 1 0.75 1
vt 0.666666985 1 1
vt 0.5 0.75 1
vt 0.666666985 0.75 1
vt 0.457845986 0.129999995 1
vt 0.353922993 0.310000002 1
vt 0.25 0.129999995 1
vt 0.333332986 1 1
vt 0.166666999 0.75 1
vt 0.333332986 0.75 1
vt 0.75 0.49000001 1
vt 0.853923023 0.310000002 1
vt 0.646076977 0.310000002 1
vt 0.833333015 1 1
vt 0.5 1 1
vt 0.166666999 1 1
vt -0 0.75 1
vt -0 0.5 1
vt -0 1 1
vt 0.333332986 0.5 1
vt 0.666666985 0.5 1
vt 0.75 0.129999995 1
vt 0.542154014 0.129999995 1
vt 0.957845986 0.129999995 1
vt 0.166666999 0.5 1
vt 0.146077007 0.310000002 1
vt 0.0421539992 0.129999995 1
vt 0.25 0.49000001 1
vt 0.5 0.5 1
vt 0.833333015 0.5 1
vt 1 0.5 1

# 32 vertex normals
vn 0.850199997 0.526499987 -0.00480000023
vn 0.0308999997 -0.999499977 -0.00480000023
vn 0.0267999992 -0.0165999997 0.999499977
vn -0.880999982 0.47299999 -0.00480000023
vn -0.00100000005 0.0315999985 -0.999499977
vn 0.869400024 0.493699998 0.0198999997
vn -0.00719999988 -0.999800026 0.0198999997
vn -0.862299979 0.506099999 0.0198999997
vn -0.850199997 0.526499987 0.00480000023
vn -0.850000024 0.52640003 0.0196000002
vn -0.857900023 0.513800025 0.0102000004
vn -0.0308999997 -0.999499977 0.00480000023
vn -0.0308999997 -0.999300003 0.0196000002
vn -0.0160000008 -0.999800026 0.0102000004
vn 0.880999982 0.47299999 0.00480000023
vn 0.880900025 0.472900003 0.0196000002
vn 0.873899996 0.486000001 0.0102000004
vn -0.0267999992 -0.0165999997 -0.999499977
vn 0 -2.22044605e-16 -1
vn 0.0277999993 -0.0148999998 -0.999499977
vn -0.873899996 0.486000001 -0.0102000004
vn -0.880900025 0.472900003 -0.0196000002
vn -0.869400024 0.493699998 -0.0198999997
vn -0.0277999993 -0.0148999998 0.999499977
vn 0 2.22044605e-16 1
vn 0.00100000005 0.0315999985 0.999499977
vn 0.0160000008 -0.999800026 -0.0102000004
vn 0.0308999997 -0.999300003 -0.0196000002
vn 0.00719999988 -0.999800026 -0.0198999997
vn 0.857900023 0.513800025 -0.0102000004
vn 0.850000024 0.52640003 -0.0196000002
vn 0.862299979 0.506099999 -0.0198999997

# Mesh 'Triangle_Cylinder_004' with 32 faces
g Triangle_Cylinder_004
usemtl Walnut
f  1/1/1 2/2/1 3/3/1
f  4/4/2 5/5/2 6/6/2
f  4/7/3 7/8/3 8/9/3
f  9/10/4 10/11/4 11/12/4
f  12/13/5 13/14/5 14/15/5
f  1/1/6 7/16/6 2/2/6
f  4/4/7 8/17/7 5/5/7
f  9/10/8 15/18/8 10/11/8
f  10/11/9 3/19/9 12/20/9
f  10/11/10 15/18/10 3/19/10
f  15/18/11 1/21/11 3/19/11
f  5/5/12 11/12/12 16/22/12
f  5/5/13 8/17/13 11/12/13
f  8/17/14 9/10/14 11/12/14
f  2/2/15 6/6/15 17/23/15
f  2/2/16 7/16/16 6/6/16
f  7/16/17 4/4/17 6/6/17
f  14/15/18 18/24/18 16/25/18
f  14/15/19 13/14/19 18/24/19
f  13/14/20 17/26/20 18/24/20
f  11/12/21 14/27/21 16/22/21
f  11/12/22 10/11/22 14/27/22
f  10/11/23 12/20/23 14/27/23
f  8/9/24 15/28/24 9/29/24
f  8/9/25 7/8/25 15/28/25
f  7/8/26 1/30/26 15/28/26
f  6/6/27 18/31/27 17/23/27
f  6/6/28 5/5/28 18/31/28
f  5/5/29 16/22/29 18/31/29
f  3/3/30 13/32/30 12/33/30
f  3/3/31 2/2/31 13/32/31
f  2/2/32 17/23/32 13/32/32

